<?xml version="1.0" standalone="no"?>
<!DOCTYPE svg PUBLIC "-//W3C//DTD SVG 20010904//EN"
 "http://www.w3.org/TR/2001/REC-SVG-20010904/DTD/svg10.dtd">
<svg version="1.0" xmlns="http://www.w3.org/2000/svg"
 width="150.000000pt" height="100.000000pt" viewBox="0 0 300.000000 447.000000"
 preserveAspectRatio="xMidYMid meet">
<metadata>
Created by potrace 1.10, written by Peter Selinger 2001-2011
</metadata>
<g transform="translate(0.000000,447.000000) scale(0.100000,-0.100000)"
fill="#000000" stroke="none">
<path d="M1489 4460 c-57 -10 -85 -24 -124 -61 l-30 -28 -65 13 c-35 7 -76 10
-90 6 -104 -30 -200 -128 -200 -205 0 -23 -17 -35 -49 -35 -19 0 -81 -59 -81
-78 0 -7 -4 -12 -9 -12 -19 0 -109 -91 -121 -122 -18 -44 -18 -44 -34 -23 -11
16 -17 17 -29 7 -12 -10 -22 -9 -53 7 -38 19 -90 34 -166 46 -23 3 -45 15 -57
30 -24 31 -49 32 -56 2 -6 -23 -8 -23 -58 -14 -30 6 -58 18 -65 29 -17 23 -42
23 -42 -1 0 -25 35 -68 72 -87 16 -8 28 -18 25 -21 -3 -2 -15 1 -27 7 -16 8
-25 9 -33 1 -17 -17 20 -50 98 -88 66 -32 62 -37 -18 -17 -45 11 -36 -29 15
-67 33 -23 42 -36 40 -54 -3 -24 38 -65 65 -65 8 0 28 -11 45 -25 24 -20 40
-25 84 -25 l54 0 -27 -42 c-26 -39 -28 -49 -27 -142 0 -66 5 -113 15 -135 13
-29 13 -44 2 -95 -7 -34 -10 -74 -7 -91 9 -50 39 -109 70 -135 27 -23 29 -31
30 -90 0 -71 21 -123 73 -182 26 -30 28 -35 15 -53 -8 -10 -14 -26 -14 -34 0
-39 -102 -201 -165 -264 -65 -64 -207 -144 -288 -161 -15 -4 -37 -16 -48 -27
-17 -17 -20 -28 -14 -58 4 -20 11 -56 15 -81 35 -184 -19 -370 -150 -513 -75
-82 -75 -96 5 -192 117 -140 150 -228 150 -395 -1 -68 -6 -131 -14 -153 -24
-69 4 -107 89 -120 92 -14 251 -121 327 -219 48 -63 92 -156 93 -196 0 -30 43
-72 73 -72 14 0 42 7 63 16 30 12 58 15 117 11 70 -5 87 -10 158 -51 43 -25
113 -58 156 -73 70 -24 93 -27 218 -27 121 -1 149 2 209 22 80 27 166 69 214
105 44 33 93 41 172 26 130 -23 149 -23 176 2 13 12 27 38 30 58 17 93 124
242 228 316 62 44 124 75 219 110 66 24 75 46 54 134 -32 130 -16 263 44 384
28 55 84 135 115 162 22 20 44 60 44 81 0 12 -30 57 -66 100 -147 177 -193
361 -138 550 15 54 15 57 -3 83 -13 16 -44 34 -84 48 -159 56 -296 159 -364
277 -38 66 -69 160 -54 165 24 8 81 66 107 110 23 39 27 57 27 121 -1 58 3 78
17 92 10 10 18 29 18 43 0 14 15 45 34 69 53 70 69 123 64 208 -5 80 -25 128
-69 169 l-27 25 17 55 c13 39 23 55 38 57 12 2 29 12 39 23 9 10 25 19 35 19
26 0 80 50 77 70 -2 12 12 30 40 50 28 20 42 37 40 48 -4 17 -18 19 -63 8 -14
-4 -25 -2 -25 4 0 5 5 10 11 10 23 0 115 51 127 70 17 28 7 43 -19 29 -38 -20
-30 -2 11 25 48 32 70 70 51 89 -10 9 -16 8 -30 -9 -9 -12 -33 -25 -52 -29
-19 -3 -41 -9 -50 -11 -11 -3 -18 3 -22 16 -8 32 -35 35 -65 7 -19 -18 -43
-28 -77 -32 -27 -3 -65 -11 -84 -17 -28 -9 -37 -7 -62 11 -16 12 -40 26 -54
31 -22 8 -25 15 -25 62 -1 76 -23 103 -88 103 l-49 0 -16 46 c-22 62 -61 99
-103 99 -18 0 -37 6 -41 14 -13 24 -95 50 -159 51 -57 0 -63 3 -90 34 -15 19
-43 40 -61 47 -42 18 -164 26 -224 14z m207 -39 c23 -10 52 -34 66 -52 13 -19
37 -51 52 -72 28 -39 58 -43 31 -4 -25 36 -19 47 26 47 48 0 79 -14 79 -37 0
-12 3 -13 15 -3 20 17 45 5 45 -21 0 -16 4 -19 18 -14 9 4 24 9 33 12 23 7 77
-60 84 -104 3 -21 10 -44 14 -52 11 -21 31 -25 31 -7 0 12 10 16 34 16 52 0
66 -21 66 -95 l0 -63 33 -6 c43 -9 74 -33 60 -47 -8 -8 -17 -7 -32 2 -18 12
-23 11 -39 -7 -26 -28 -57 -39 -195 -69 -156 -35 -191 -51 -260 -125 -67 -71
-105 -90 -181 -90 l-54 0 -6 43 c-9 58 -52 179 -68 189 -18 11 -106 10 -113
-2 -3 -5 -21 -10 -39 -10 -41 0 -56 -15 -56 -57 0 -31 12 -43 24 -24 4 5 18 6
34 2 24 -7 27 -12 25 -46 -2 -22 -14 -55 -29 -77 -25 -35 -31 -38 -73 -38 -66
1 -121 29 -177 94 -63 73 -117 100 -276 141 -71 18 -132 35 -135 39 -17 17 86
146 116 146 5 0 21 20 35 44 36 62 96 75 96 22 0 -31 26 -54 43 -37 9 10 8 14
-5 22 -21 12 -24 63 -7 124 23 82 157 178 225 161 20 -5 24 -10 15 -19 -27
-27 0 -38 30 -11 24 22 49 12 43 -18 -5 -22 -4 -22 8 -4 36 53 83 96 121 110
62 21 192 20 243 -3z m-1241 -471 c86 -14 152 -40 194 -77 l36 -32 -53 -1
c-47 0 -59 4 -93 33 -23 20 -63 40 -97 50 -71 19 -108 47 -99 71 6 15 10 14
29 -9 17 -19 38 -28 83 -35z m2209 17 c-3 -9 -26 -23 -50 -32 -24 -8 -65 -22
-91 -32 -26 -9 -58 -27 -71 -40 -18 -19 -34 -23 -79 -23 l-56 0 19 21 c36 40
107 66 230 84 26 4 51 16 65 31 23 25 44 20 33 -9z m-2379 2 c28 -7 61 -20 75
-30 14 -9 51 -25 83 -35 32 -9 72 -30 89 -46 27 -25 38 -28 95 -28 45 0 62 -3
57 -11 -5 -8 -35 -10 -102 -5 -81 6 -99 10 -124 31 -16 14 -42 27 -56 30 -41
8 -167 73 -188 97 -19 20 -19 21 1 15 11 -3 43 -12 70 -18z m2512 -7 c-21 -23
-129 -76 -184 -91 -23 -6 -55 -23 -71 -36 -27 -23 -38 -25 -126 -25 -57 0 -96
4 -96 10 0 6 28 10 63 10 55 0 67 3 87 25 14 15 52 34 94 46 39 12 82 27 96
35 14 8 52 20 85 28 33 8 62 14 64 15 2 1 -3 -7 -12 -17z m-2072 -100 c11 -5
76 -24 144 -41 129 -33 211 -69 235 -106 26 -39 77 -85 119 -107 35 -17 53
-20 119 -15 72 5 78 4 84 -16 6 -20 7 -20 21 -1 13 18 15 18 24 1 6 -9 14 -15
19 -12 4 3 21 -2 36 -10 28 -14 29 -14 34 8 3 12 16 26 28 32 12 5 22 13 22
16 0 4 18 2 39 -3 30 -8 52 -6 97 7 50 14 68 27 124 86 74 78 107 93 279 128
102 21 146 37 175 66 16 17 21 9 10 -19 -12 -32 -57 -52 -256 -112 -44 -12
-58 -21 -58 -35 0 -13 8 -19 23 -20 18 -1 16 -3 -8 -9 l-30 -8 28 -1 c36 -1
36 -28 0 -34 -27 -4 -27 -4 -5 -12 13 -4 21 -13 19 -19 -5 -12 -9 -12 -42 -1
-18 6 -18 5 3 -13 34 -31 29 -45 -14 -37 -24 4 -34 3 -29 -4 3 -6 13 -11 21
-11 8 0 14 -4 14 -9 0 -19 -22 -22 -45 -7 -28 19 -33 11 -9 -15 25 -27 8 -42
-27 -24 -17 9 -29 11 -29 5 0 -6 7 -13 15 -16 18 -7 20 -30 4 -40 -7 -4 -20 4
-30 17 -16 20 -19 21 -19 6 0 -10 7 -20 15 -23 19 -8 19 -23 0 -30 -9 -4 -24
4 -36 17 -18 21 -20 21 -14 4 12 -32 11 -48 -2 -52 -7 -2 -15 7 -19 21 -3 14
-10 26 -15 26 -13 0 -11 -24 2 -37 6 -6 8 -16 5 -22 -13 -21 -37 -11 -47 19
-6 16 -15 27 -20 24 -5 -3 -2 -18 6 -34 19 -36 19 -40 0 -40 -8 0 -22 12 -30
28 l-16 27 5 -32 c4 -24 1 -35 -12 -42 -16 -10 -16 -10 1 -11 9 0 17 -5 17
-10 0 -7 -6 -7 -20 0 -11 6 -20 18 -20 26 0 20 -40 114 -49 114 -4 0 -14 -9
-23 -19 -9 -11 -35 -25 -57 -32 -48 -14 -110 0 -142 32 -20 20 -21 20 -34 2
-19 -24 -32 -60 -40 -105 -4 -25 -11 -38 -21 -38 -9 0 -12 5 -8 11 4 7 8 30
10 53 l3 41 -14 -32 c-8 -18 -18 -33 -24 -33 -19 0 -22 20 -7 42 18 25 20 38
7 38 -5 0 -14 -13 -21 -30 -12 -30 -33 -39 -45 -20 -3 5 -1 19 5 30 6 12 9 26
7 33 -3 7 -10 0 -16 -15 -6 -16 -17 -28 -26 -28 -19 0 -19 14 1 45 10 15 12
25 6 25 -6 0 -16 -9 -22 -20 -6 -11 -20 -20 -30 -20 -25 0 -25 12 0 35 11 10
17 22 14 27 -3 4 -14 -2 -24 -14 -15 -18 -21 -20 -31 -11 -10 10 -9 16 4 31
25 27 21 35 -9 16 -19 -13 -28 -14 -37 -5 -9 9 -6 16 13 31 28 22 11 27 -20 8
-17 -11 -22 -10 -30 2 -7 11 -4 17 10 22 30 11 24 20 -9 13 -48 -10 -52 21 -6
38 6 3 7 8 2 12 -4 5 -13 3 -19 -3 -18 -18 -28 -15 -28 8 0 14 7 20 23 21 17
1 15 3 -8 8 -38 8 -38 24 1 32 l29 7 -27 1 c-16 0 -28 5 -28 10 0 5 9 7 20 4
31 -8 25 24 -7 41 -16 8 -73 29 -127 47 -100 33 -166 75 -166 107 0 13 4 12
23 -5 12 -11 31 -25 42 -31z m-361 7 c32 -10 74 -30 92 -44 30 -23 41 -25 137
-25 84 0 106 -3 111 -15 5 -13 -14 -15 -129 -15 -118 0 -135 2 -147 18 -7 10
-50 33 -95 51 -96 39 -126 63 -66 54 21 -3 65 -14 97 -24z m2402 6 c-11 -8
-56 -29 -100 -46 -45 -17 -88 -37 -97 -45 -18 -16 -203 -20 -255 -5 -19 5 -53
4 -94 -5 -96 -20 -105 -15 -22 11 40 12 80 29 89 36 14 12 16 12 11 -6 -5 -19
-1 -20 110 -17 103 3 118 6 146 27 31 24 80 40 166 55 66 11 67 11 46 -5z
m-1213 -62 c32 -75 50 -155 37 -163 -7 -4 -9 -13 -6 -19 4 -6 1 -11 -8 -11 -9
0 -18 -11 -22 -25 -8 -31 -17 -31 -44 -3 -11 12 -20 18 -20 14 0 -5 -6 -3 -14
3 -10 8 -16 9 -21 1 -9 -15 -25 -12 -25 5 0 8 -8 15 -17 15 -15 0 -15 1 -1 13
19 14 42 92 32 108 -4 6 -1 15 7 20 11 6 10 12 -5 28 -27 30 -6 51 49 51 39 0
43 -3 58 -37z m-756 -29 c72 -25 59 -31 -27 -13 -30 6 -54 18 -60 29 -14 26
-12 34 4 20 8 -6 46 -22 83 -36z m629 29 c16 -22 18 -37 3 -28 -6 4 -26 7 -45
7 -19 0 -34 1 -34 3 0 36 53 48 76 18z m-1066 -30 c30 -3 62 -12 71 -19 13
-11 46 -13 165 -9 163 6 168 -3 17 -30 -129 -22 -194 -20 -251 9 -53 27 -112
73 -77 61 11 -4 45 -10 75 -12z m2356 -12 c-9 -10 -44 -31 -78 -46 -53 -24
-68 -26 -127 -21 -129 13 -267 45 -251 59 3 2 71 -1 152 -6 131 -9 150 -8 166
6 10 10 41 17 77 20 33 2 64 4 69 5 5 1 1 -6 -8 -17z m-1846 -31 c43 -9 42 -9
-22 -7 -39 2 -73 8 -80 16 -14 13 -2 12 102 -9z m1358 10 c-26 -16 -138 -25
-138 -12 0 6 24 13 53 15 107 7 103 7 85 -3z m-1454 -39 c15 -27 14 -29 -12
-41 -118 -55 -262 -83 -297 -57 -18 14 -15 16 40 27 105 22 263 75 253 86 -3
2 -31 -5 -64 -16 -165 -57 -281 -73 -322 -44 -36 25 -26 35 31 28 58 -7 192 8
272 30 74 20 83 19 99 -13z m1598 -1 c50 -12 129 -21 185 -21 l97 -2 -28 -23
c-16 -15 -40 -24 -59 -24 -37 0 -175 37 -257 69 -65 25 -87 27 -45 4 41 -22
188 -72 236 -79 44 -7 47 -24 6 -35 -35 -10 -174 27 -270 72 -21 10 -26 17
-21 33 9 28 24 37 49 31 11 -3 59 -15 107 -25z m-162 9 c0 -4 -7 -12 -15 -19
-11 -9 -25 -10 -65 0 -27 7 -50 15 -50 18 0 4 29 7 65 7 36 0 65 -3 65 -6z
m-1300 -13 c-12 -12 -112 -13 -117 0 -2 7 18 11 61 10 36 -1 61 -5 56 -10z
m1233 -23 c30 -6 34 -15 14 -31 -24 -20 -87 6 -87 35 0 11 6 13 23 8 12 -4 34
-9 50 -12z m-1220 -13 c-3 -13 -17 -22 -38 -26 -59 -11 -77 19 -22 35 53 15
66 13 60 -9z m-127 -47 c-49 -42 -193 -69 -203 -38 -2 6 25 18 59 28 35 10 83
28 108 40 38 19 46 20 54 8 6 -10 1 -21 -18 -38z m1572 -19 c38 -7 38 -28 -1
-32 -68 -8 -198 56 -184 91 5 15 15 12 79 -18 40 -19 87 -38 106 -41z m-118
-23 c43 -19 44 -20 20 -29 -17 -6 -37 -5 -63 4 -49 17 -101 54 -90 64 17 17
49 16 68 -1 11 -10 40 -27 65 -38z m-1374 38 c9 -15 -30 -45 -84 -63 -33 -12
-50 -13 -70 -4 -27 10 -27 10 19 24 25 7 54 23 64 34 20 22 60 27 71 9z m1238
-28 c10 -11 40 -29 67 -40 51 -22 57 -41 13 -41 -36 0 -134 67 -134 92 0 15
37 8 54 -11z m-1195 -17 c-38 -41 -101 -74 -127 -67 -30 7 -23 25 14 35 16 4
43 19 59 32 17 14 41 25 54 26 l24 0 -24 -26z m27 -53 c-9 -10 -32 -26 -51
-37 -29 -15 -37 -16 -47 -5 -11 11 -9 15 6 25 11 6 36 25 55 43 34 30 36 31
45 12 7 -14 4 -24 -8 -38z m1145 24 c22 -19 44 -35 49 -35 6 0 10 -7 10 -15 0
-27 -48 -17 -86 18 -25 23 -33 37 -29 50 9 23 12 22 56 -18z m373 27 c2 -4 -6
-34 -19 -65 l-23 -58 28 -14 c32 -17 65 -66 74 -111 21 -97 -1 -186 -63 -256
-20 -23 -31 -46 -31 -66 0 -25 -9 -37 -45 -63 -25 -18 -45 -35 -45 -39 0 -17
15 -19 31 -4 17 16 19 15 25 0 4 -9 4 -39 2 -67 -6 -60 -44 -119 -105 -164
-35 -26 -40 -34 -35 -62 3 -21 -3 -43 -19 -71 l-24 -39 -47 32 c-26 18 -44 36
-41 39 4 3 -2 6 -13 6 -10 1 -34 9 -52 19 -30 15 -32 19 -18 30 22 18 20 69
-4 109 -19 31 -57 55 -72 45 -4 -2 -17 6 -29 18 -14 14 -29 19 -46 16 -16 -3
-32 2 -44 14 -11 11 -32 19 -48 19 -32 0 -49 14 -30 25 6 4 8 18 5 31 -5 17
-2 24 8 24 7 0 19 7 26 15 7 8 22 15 34 15 12 0 30 6 40 13 19 14 56 99 56
128 0 9 -25 36 -57 59 -52 40 -55 44 -38 56 11 8 30 14 44 14 16 0 39 15 68
45 24 25 43 47 43 49 0 9 137 143 153 149 9 3 17 11 17 17 0 5 13 10 29 10 16
0 34 7 41 15 21 25 71 45 116 45 25 0 49 6 56 15 14 16 44 20 52 7z m-1753
-39 c19 -9 38 -22 42 -30 4 -7 13 -13 20 -13 24 0 90 -42 116 -73 14 -18 42
-49 62 -69 20 -20 38 -41 40 -46 10 -24 84 -95 103 -98 11 -1 32 -6 45 -11 23
-9 21 -11 -37 -54 -34 -24 -62 -50 -62 -57 0 -7 7 -36 16 -63 17 -50 53 -89
83 -89 26 -1 54 -27 47 -45 -3 -9 -1 -25 4 -36 11 -20 5 -23 -33 -19 -23 2
-67 -26 -67 -43 0 -9 -11 -12 -33 -9 -22 2 -38 -2 -46 -12 -8 -9 -26 -16 -42
-16 -32 0 -59 -23 -59 -51 0 -25 43 -69 67 -69 10 0 -6 -14 -35 -30 -50 -29
-53 -30 -77 -14 -26 17 -34 7 -13 -14 10 -10 5 -20 -27 -47 -22 -19 -45 -34
-50 -35 -15 0 -45 54 -45 81 0 27 27 59 49 59 9 0 1 12 -22 31 -54 45 -88 108
-94 179 -4 40 -2 60 5 60 6 0 14 -4 17 -10 8 -13 45 -13 45 1 0 5 -15 16 -34
24 -44 18 -93 61 -110 94 -31 60 -31 176 0 164 19 -7 18 -1 -11 84 -37 106
-36 212 3 271 18 27 82 30 133 5z m1383 -88 c-9 -24 -36 -18 -78 18 -39 33
-39 34 -22 58 l18 24 44 -42 c28 -27 42 -48 38 -58z m-1087 42 c-3 -7 -23 -26
-46 -42 -38 -26 -43 -27 -58 -13 -14 15 -12 20 28 60 42 42 45 42 62 25 10
-10 17 -24 14 -30z m1043 -84 c0 -25 -22 -24 -60 2 -59 41 -68 54 -46 71 16
11 24 9 62 -24 24 -20 44 -42 44 -49z m-993 44 c-4 -14 -84 -77 -97 -77 -5 0
-14 9 -20 20 -9 16 -6 22 17 34 16 8 36 23 47 35 15 16 23 18 38 10 11 -6 17
-16 15 -22z m900 -37 c18 -16 38 -30 43 -30 6 0 10 -7 10 -15 0 -26 -36 -16
-73 20 -60 58 -42 79 20 25z m-872 10 c9 -14 -64 -80 -87 -80 -24 0 -23 27 0
34 11 4 29 18 42 31 26 27 35 30 45 15z m317 -20 c44 -27 131 -27 175 -1 36
23 45 17 61 -40 l10 -36 -49 5 c-29 3 -55 0 -62 -7 -14 -11 -23 -97 -33 -296
l-4 -90 32 39 c18 22 38 47 45 55 11 14 12 14 13 -3 0 -25 -37 -84 -62 -97
-25 -13 -47 12 -48 56 -6 166 -23 325 -37 336 -8 7 -32 10 -64 6 l-50 -6 7 32
c6 27 24 67 31 67 1 0 17 -9 35 -20z m515 -18 c15 -16 36 -33 47 -39 18 -10
18 -11 -5 -42 -12 -17 -28 -31 -34 -31 -14 0 -68 57 -84 87 -14 28 7 45 22 17
14 -26 67 -74 80 -74 6 0 -8 19 -31 43 -40 41 -53 67 -33 67 5 0 22 -13 38
-28z m-801 7 c9 -15 -80 -104 -95 -95 -19 12 -12 31 19 50 17 10 36 26 43 37
13 22 23 24 33 8z m37 -15 c19 -19 -71 -121 -97 -111 -23 9 -20 22 9 35 13 6
35 27 47 47 23 35 30 40 41 29z m728 -97 c35 -25 37 -37 5 -37 -44 0 -98 85
-81 127 5 14 11 9 27 -25 12 -24 34 -53 49 -65z m-695 40 c-10 -40 -55 -87
-82 -87 -32 0 -30 7 12 48 19 19 40 46 45 60 13 33 34 14 25 -21z m604 8 c0
-13 14 -40 31 -60 26 -29 28 -36 15 -41 -21 -8 -46 13 -63 53 -17 43 -17 73 2
73 9 0 15 -9 15 -25z m-560 -5 c0 -55 -53 -127 -80 -110 -12 7 -10 14 13 38
15 15 27 31 27 34 0 4 4 18 10 32 11 31 30 34 30 6z m518 -11 c2 -13 8 -28 13
-33 21 -22 7 -26 -21 -6 -16 12 -30 29 -30 39 0 39 33 39 38 0z m-478 -12 c0
-23 -17 -43 -50 -63 -12 -6 -11 -2 3 19 9 14 17 35 17 47 0 11 7 20 15 20 9 0
15 -9 15 -23z m175 -8 c4 -11 5 -22 3 -23 -5 -5 -128 -16 -128 -11 0 2 4 15
10 29 8 23 15 26 59 26 41 0 51 -3 56 -21z m209 5 c13 -35 7 -46 -23 -39 -16
3 -43 7 -60 7 -26 1 -31 5 -31 25 0 21 4 23 54 23 40 0 55 -4 60 -16z m165
-119 c55 -44 100 -84 101 -90 0 -16 -40 -77 -49 -73 -5 2 -49 42 -99 90 -87
82 -91 88 -98 139 l-7 53 26 -20 c14 -10 71 -55 126 -99z m-601 -86 c-51 -48
-101 -88 -110 -89 -11 0 -24 14 -33 37 -19 44 -27 35 120 147 l110 84 3 -45
c3 -45 3 -45 -90 -134z m230 134 c2 -13 -1 -23 -7 -23 -6 0 -11 5 -11 11 0 7
-11 9 -30 6 -22 -5 -30 -3 -30 8 0 15 23 24 55 22 13 -1 21 -10 23 -24z m165
13 c8 -21 -3 -26 -25 -13 -16 9 -22 9 -25 0 -6 -17 -33 -17 -33 0 0 21 10 27
46 27 18 0 34 -6 37 -14z m-265 -48 c-7 -4 -16 -8 -20 -8 -13 0 -9 35 4 48 10
10 14 8 21 -10 5 -14 3 -24 -5 -30z m310 19 c3 -21 0 -26 -12 -21 -19 7 -22
58 -3 52 6 -3 13 -17 15 -31z m-40 -38 c2 -20 1 -21 -8 -9 -9 11 -10 3 -5 -34
8 -57 19 -86 57 -143 33 -48 33 -49 13 -57 -28 -10 -105 188 -105 272 0 23 1
24 23 10 12 -9 23 -26 25 -39z m-204 9 c-25 -140 -72 -258 -104 -258 -26 0
-25 4 9 53 29 42 53 103 66 167 7 33 6 34 -9 15 -15 -20 -15 -20 -16 2 0 20
33 53 52 53 4 0 5 -15 2 -32z m141 -13 c0 -10 -6 -20 -12 -22 -8 -3 -13 5 -13
22 0 17 5 25 13 23 6 -3 12 -13 12 -23z m-102 -5 c4 -15 0 -20 -14 -20 -18 0
-26 20 -12 33 11 12 21 8 26 -13z m417 -160 c24 -1 24 -1 6 -15 -11 -8 -26
-15 -34 -15 -21 0 -161 152 -162 175 0 14 22 -2 83 -63 58 -58 90 -82 107 -82z
m-641 34 c-76 -76 -104 -89 -130 -57 -12 15 -12 16 4 10 12 -5 41 15 105 73
62 56 88 74 90 63 2 -9 -27 -47 -69 -89z m131 77 c0 -20 -19 -41 -37 -41 -17
0 -16 16 3 45 17 27 34 25 34 -4z m310 -23 c0 -22 -13 -23 -34 -2 -17 16 -21
36 -9 47 10 11 43 -24 43 -45z m-210 11 c6 -10 10 -28 10 -40 0 -19 -4 -16
-29 17 -15 21 -27 42 -24 46 6 11 33 -3 43 -23z m110 24 c0 -5 -14 -24 -31
-43 l-31 -35 7 30 c4 16 11 36 17 42 11 14 38 18 38 6z m240 -165 c1 -14 -42
-19 -57 -6 -28 23 -73 101 -73 127 0 22 7 17 65 -44 35 -39 64 -73 65 -77z
m-230 119 c0 -20 -63 -104 -67 -90 -4 12 17 52 45 86 18 21 22 21 22 4z m-308
-79 c-16 -24 -38 -51 -49 -60 -17 -16 -22 -16 -39 -4 -18 14 -16 18 46 81 54
55 66 62 68 46 2 -11 -10 -40 -26 -63z m173 43 c38 -56 26 -76 -13 -22 -18 24
-32 48 -32 53 0 19 19 6 45 -31z m229 -17 c10 -39 1 -39 -23 -1 -26 42 -26 51
-2 38 10 -6 22 -22 25 -37z m-344 -4 c-11 -22 -23 -40 -26 -40 -10 0 8 65 20
72 24 16 26 6 6 -32z m109 -35 c44 -54 49 -65 26 -65 -19 0 -75 77 -75 103 0
11 2 18 4 16 2 -2 22 -26 45 -54z m291 -43 c-17 -6 -40 19 -40 42 1 19 3 18
25 -9 14 -16 20 -32 15 -33z m-444 13 c-4 -17 -14 -25 -29 -26 -20 -1 -20 -2
-2 -6 11 -3 24 -11 28 -19 6 -10 13 -11 32 -2 19 8 32 8 51 -1 31 -14 27 -31
-10 -49 -24 -12 -30 -12 -45 2 -10 9 -21 16 -26 16 -4 0 -14 8 -22 18 -12 15
-13 14 -7 -11 6 -27 5 -28 -22 -21 -38 9 -37 7 -14 37 12 15 21 29 20 32 -1 9
43 65 48 60 2 -2 2 -16 -2 -30z m122 -36 c-11 -7 -45 -3 -56 6 -2 2 4 18 13
35 l17 32 20 -32 c16 -26 17 -35 6 -41z m211 45 c6 -14 9 -30 6 -35 -7 -11
-68 -12 -63 -1 35 72 39 75 57 36z m121 -52 c20 -16 21 -21 10 -43 -9 -16 -15
-20 -18 -10 -2 7 2 18 9 23 10 6 7 7 -10 3 -24 -7 -41 6 -41 33 0 18 24 15 50
-6z m-262 -28 c2 -17 -3 -20 -33 -21 -38 -1 -50 9 -41 33 9 24 70 14 74 -12z
m100 9 c-4 -23 -54 -41 -69 -26 -21 21 -2 43 36 43 29 0 36 -3 33 -17z m96 9
c9 -15 -9 -30 -39 -33 -25 -3 -31 0 -33 19 -3 19 1 22 32 22 19 0 37 -4 40 -8z
m57 -65 c13 4 25 -2 35 -16 18 -25 49 -29 40 -5 -6 15 -4 15 16 2 17 -12 25
-29 30 -69 4 -30 3 -58 -2 -62 -4 -5 -26 7 -47 27 -22 20 -43 33 -46 29 -4 -3
1 -12 11 -19 18 -14 5 -18 -23 -8 -18 7 -55 75 -55 102 0 21 13 38 18 24 2 -6
12 -8 23 -5z m-199 -14 c17 -15 18 -15 18 0 0 21 9 21 34 2 14 -10 24 -12 38
-4 24 13 41 1 58 -41 25 -61 -9 -74 -72 -27 -15 11 -31 17 -35 13 -4 -4 -1
-11 7 -16 12 -8 11 -10 -7 -10 -22 0 -55 37 -67 78 -9 26 1 28 26 5z m-229
-35 c33 -44 17 -61 -51 -55 -31 3 -49 3 -39 1 28 -9 20 -24 -13 -24 -19 0 -42
11 -62 29 -28 25 -31 33 -22 48 9 14 22 17 59 15 37 -3 46 0 42 11 -10 26 64
5 86 -25z m118 31 c50 8 51 8 70 -23 10 -17 19 -37 19 -43 0 -16 -76 -18 -85
-3 -3 6 -14 10 -23 10 -14 0 -15 -2 -2 -10 23 -14 3 -24 -25 -12 -22 10 -65
65 -65 84 0 4 14 3 30 -2 17 -5 53 -5 81 -1z m521 -60 c28 -28 32 -30 38 -14
6 17 8 16 29 -6 25 -27 34 -56 29 -90 -5 -36 -33 -34 -69 5 -31 34 -56 44 -29
11 18 -22 -3 -18 -33 5 -41 32 -50 120 -13 120 9 0 30 -14 48 -31z m-830 -26
c15 -15 28 -32 28 -39 0 -16 -46 -27 -80 -19 -16 3 -31 1 -35 -4 -3 -6 1 -11
10 -11 9 0 13 -4 10 -10 -21 -34 -119 13 -113 54 3 18 11 21 51 24 38 2 47 6
43 18 -10 26 55 17 86 -13z m658 -56 c154 -42 309 -116 433 -207 l68 -51 -20
-27 c-12 -15 -36 -44 -54 -65 l-34 -39 -88 51 c-186 107 -363 153 -585 152
-218 -1 -405 -52 -581 -158 -50 -30 -92 -53 -93 -51 -2 2 -24 29 -49 61 -26
32 -47 60 -47 62 0 2 31 29 69 60 133 108 304 189 471 226 129 28 379 21 510
-14z m530 -186 c0 -14 -5 -33 -10 -41 -8 -13 -13 -11 -35 11 l-26 25 22 28
c17 21 24 24 35 15 8 -6 14 -23 14 -38z m-1559 -2 c9 -17 7 -25 -12 -45 -17
-18 -25 -21 -36 -13 -14 12 -17 37 -7 63 9 23 41 20 55 -5z m939 -40 c337 -49
652 -278 804 -585 85 -171 112 -304 103 -507 -4 -101 -11 -153 -31 -221 -178
-599 -809 -926 -1411 -729 -277 90 -508 289 -638 548 -195 390 -114 870 201
1184 254 254 599 363 972 310z m672 -34 c10 -22 8 -28 -10 -46 -24 -21 -36
-19 -51 10 -7 13 -6 24 5 39 20 29 42 28 56 -3z m-1656 -21 c16 -23 16 -26 1
-41 -14 -15 -20 -15 -42 -3 -27 14 -32 39 -13 58 19 19 36 14 54 -14z m1564
-109 c-41 -42 -45 -44 -62 -29 -16 16 -15 19 25 64 41 48 42 48 62 29 19 -19
19 -19 -25 -64z m-1492 16 c30 -37 30 -39 13 -55 -16 -15 -20 -13 -49 23 -35
43 -39 57 -19 64 21 9 23 8 55 -32z m1619 17 c13 -12 23 -29 22 -37 -1 -9 -26
-38 -55 -65 l-55 -50 -31 31 -31 31 54 56 c30 31 58 56 63 56 5 0 20 -10 33
-22z m-1691 -44 l47 -55 -31 -32 -32 -32 -57 57 -56 56 31 31 c17 17 35 31 40
31 6 0 32 -25 58 -56z m1772 14 c27 -27 12 -48 -106 -142 -18 -14 -26 -16 -35
-7 -9 9 4 25 51 67 47 43 61 61 57 75 -7 22 14 26 33 7z m-1918 -25 c0 -10 26
-41 57 -70 45 -40 55 -54 46 -64 -9 -9 -26 0 -75 41 -74 61 -84 76 -68 96 17
19 40 18 40 -3z m2005 -48 c0 -12 -29 -41 -80 -81 -80 -62 -80 -62 -100 -43
-20 19 -20 20 50 84 57 53 75 64 100 62 22 -1 30 -7 30 -22z m-1999 -57 c74
-61 75 -62 55 -81 -19 -19 -20 -19 -100 37 -92 65 -97 71 -81 91 22 26 49 16
126 -47z m2085 32 c10 -6 19 -17 19 -24 0 -8 -49 -46 -110 -84 l-109 -71 -16
22 c-14 21 -14 23 10 41 15 10 56 42 93 71 71 57 82 61 113 45z m-2154 -86
c81 -59 90 -69 80 -85 -7 -11 -15 -19 -19 -19 -12 0 -213 131 -217 142 -4 13
18 28 44 28 11 0 61 -30 112 -66z m2271 40 c22 -15 30 -57 14 -80 -6 -10 -259
-144 -272 -144 -8 0 -44 69 -39 74 21 19 254 166 263 166 6 0 22 -7 34 -16z
m-2342 -92 l121 -74 -21 -39 c-11 -21 -24 -39 -29 -39 -16 0 -233 113 -254
133 -35 32 -26 86 17 99 22 7 34 2 166 -80z m2344 -71 c0 -16 -6 -33 -12 -39
-14 -11 -205 -92 -218 -92 -4 0 -11 10 -17 22 -9 20 -1 25 106 79 64 32 122
58 129 58 7 1 12 -11 12 -28z m-2396 -47 c64 -31 116 -59 116 -63 0 -4 -6 -15
-12 -24 -12 -15 -21 -14 -113 24 -55 23 -106 46 -112 51 -18 15 -16 68 2 68 2
0 55 -25 119 -56z m2386 -49 c25 -30 2 -53 -83 -81 -45 -15 -87 -29 -93 -31
-12 -4 -40 50 -27 55 4 2 44 18 88 36 94 40 99 40 115 21z m-2397 -39 c48 -18
89 -35 92 -38 9 -9 -18 -59 -29 -55 -6 2 -42 14 -81 27 -80 25 -110 51 -95 81
6 10 14 19 18 19 4 0 46 -15 95 -34z m2412 -76 c0 -22 -7 -27 -88 -49 -48 -13
-90 -22 -92 -19 -3 2 -6 14 -7 27 -3 20 6 26 67 46 90 30 120 29 120 -5z
m-2429 -16 c81 -25 84 -27 77 -53 -3 -14 -6 -27 -7 -28 -3 -5 -171 48 -179 56
-11 11 0 51 15 51 5 0 48 -12 94 -26z m2458 -56 c17 -27 -3 -38 -99 -57 l-87
-18 -9 25 c-5 14 -8 26 -7 27 11 7 157 43 172 41 10 0 24 -9 30 -18z m-2469
-27 c63 -16 70 -20 67 -41 -1 -13 -4 -25 -5 -27 -2 -1 -44 5 -93 15 -85 16
-89 18 -92 45 -3 24 0 27 25 27 15 0 60 -9 98 -19z m2509 -63 c18 -30 -7 -41
-111 -49 -101 -7 -113 -4 -113 32 0 12 17 18 68 26 94 15 143 12 156 -9z
m-2544 -13 c47 -8 86 -15 88 -15 1 0 2 -12 2 -26 l0 -27 -102 7 c-117 9 -144
22 -113 56 22 24 18 24 125 5z m2594 -61 c34 -34 20 -42 -86 -49 -147 -10
-173 -6 -173 25 0 25 2 25 95 31 52 3 107 6 122 7 15 1 34 -5 42 -14z m-2518
-29 c7 -2 9 -15 7 -29 -6 -30 -11 -30 -175 -19 -82 5 -98 9 -98 23 0 36 20 41
140 34 63 -3 120 -7 126 -9z m2600 -70 c19 -29 11 -60 -19 -80 -17 -11 -53
-12 -169 -8 -131 5 -148 8 -148 23 0 10 -3 31 -6 48 l-6 31 58 4 c33 2 107 4
166 5 104 2 108 1 124 -23z m-2683 -5 l87 0 0 -49 0 -48 -92 -7 c-165 -11
-216 -8 -238 14 -26 26 -25 55 1 81 19 19 29 21 88 15 36 -3 105 -6 154 -6z
m2595 -115 c17 -6 15 -40 -3 -55 -12 -10 -38 -10 -122 -1 -60 6 -114 11 -120
11 -8 0 -13 12 -13 29 l0 29 123 -5 c67 -2 128 -6 135 -8z m-2504 -31 c4 -15
6 -27 4 -29 -2 -1 -56 -8 -121 -15 -127 -14 -151 -8 -145 34 3 19 11 21 108
27 58 3 115 6 126 7 16 1 24 -5 28 -24z m2419 -50 c34 -5 38 -9 35 -32 -4 -35
-21 -37 -130 -21 -88 13 -96 18 -82 54 6 15 17 16 73 11 36 -4 83 -9 104 -12z
m-2411 -19 c0 -8 1 -21 2 -27 1 -8 -26 -17 -69 -25 -101 -17 -133 -16 -144 5
-16 30 4 44 70 52 110 13 139 12 141 -5z m2319 -56 c82 -19 89 -23 89 -45 0
-14 -7 -27 -15 -31 -12 -4 -168 32 -183 42 -5 4 10 55 15 55 3 0 45 -9 94 -21z
m-2301 -13 c0 -8 2 -21 5 -28 4 -10 -20 -20 -90 -38 -83 -21 -97 -22 -105 -10
-21 33 -3 49 81 69 93 24 109 24 109 7z m2368 -114 c2 -14 -3 -25 -14 -29 -22
-8 -184 47 -184 63 0 40 8 41 103 14 77 -22 93 -30 95 -48z m-2344 32 c4 -15
6 -27 4 -29 -2 -1 -39 -15 -84 -30 -87 -31 -117 -29 -112 7 2 17 19 26 88 49
47 15 88 27 91 28 4 1 10 -11 13 -25z m2221 -55 c95 -37 105 -44 105 -75 0
-17 -6 -24 -19 -24 -26 0 -186 78 -185 90 1 6 2 17 3 25 2 20 4 20 96 -16z
m-2194 -10 c6 -12 7 -24 2 -28 -16 -14 -172 -81 -188 -81 -20 0 -29 24 -17 46
7 13 156 81 184 83 4 1 12 -8 19 -20z m2307 -152 c10 -50 -5 -49 -128 13 -66
33 -120 62 -120 64 0 3 4 16 9 29 l10 25 113 -57 c73 -36 114 -62 116 -74z
m-2274 85 l15 -28 -115 -57 c-122 -61 -144 -67 -144 -39 0 32 19 47 122 98 57
28 104 52 105 52 1 1 9 -11 17 -26z m2150 -98 c72 -36 137 -73 144 -82 30 -39
-8 -98 -57 -89 -22 5 -235 131 -264 157 -8 7 29 80 40 80 3 0 65 -30 137 -66z
m-2101 9 l24 -37 -133 -83 c-154 -97 -174 -101 -203 -45 -21 39 8 66 147 137
70 35 130 64 134 64 4 1 18 -16 31 -36z m2022 -113 c58 -39 105 -76 102 -83
-2 -7 -15 -16 -29 -21 -23 -8 -38 -1 -120 59 -51 38 -94 70 -96 71 -5 3 22 44
30 44 4 0 55 -32 113 -70z m-1963 9 c-4 -3 -46 -33 -94 -67 -86 -62 -109 -70
-138 -52 -24 15 -5 33 105 104 l100 64 17 -21 c9 -12 14 -25 10 -28z m1890
-59 c82 -59 95 -75 77 -96 -19 -24 -50 -16 -93 24 -23 20 -56 50 -75 65 -32
27 -33 28 -15 48 9 11 20 18 24 17 3 -2 40 -28 82 -58z m-1848 27 c8 -13 -1
-27 -53 -74 -79 -72 -87 -76 -117 -69 -18 5 -24 12 -22 26 3 20 156 140 172
136 5 -1 14 -10 20 -19z m49 -47 c9 -11 17 -21 17 -23 0 -1 -34 -33 -75 -71
-63 -56 -78 -66 -90 -56 -23 19 -18 47 13 69 15 11 45 38 67 60 22 22 42 40
45 41 3 0 13 -9 23 -20z m1727 -36 c77 -67 86 -80 70 -100 -21 -24 -38 -16
-110 53 -67 63 -69 67 -54 85 10 10 20 18 23 18 3 0 35 -25 71 -56z m8 -149
c-6 -43 -42 -28 -107 45 -62 69 -63 71 -45 91 18 19 19 19 86 -48 47 -46 68
-74 66 -88z m-1675 128 c14 -17 10 -23 -53 -91 -61 -65 -71 -72 -89 -62 -12 6
-21 16 -21 23 0 12 129 147 141 147 3 0 13 -8 22 -17z m1617 -189 c0 -12 -6
-27 -13 -33 -18 -14 -30 -4 -102 86 l-57 73 23 18 22 19 63 -71 c35 -39 64
-81 64 -92z m-1566 137 c17 -19 15 -22 -41 -95 -32 -41 -66 -78 -77 -81 -19
-7 -36 8 -36 35 0 14 118 159 131 160 3 0 14 -9 23 -19z m70 -50 c16 -18 13
-23 -60 -120 -42 -55 -81 -101 -86 -101 -5 0 -14 11 -20 25 -10 21 -8 30 13
58 88 122 115 156 125 156 6 1 19 -7 28 -18z m1379 -68 c68 -89 80 -120 51
-144 -15 -12 -19 -11 -33 10 -8 13 -44 61 -78 105 l-63 81 21 18 c12 9 24 17
28 16 3 0 36 -39 74 -86z m-54 -77 c52 -69 81 -117 81 -134 0 -58 -68 -83
-107 -39 -26 29 -136 247 -129 254 17 17 62 40 68 34 3 -3 43 -55 87 -115z
m-1249 99 c17 -9 30 -18 30 -20 0 -3 -28 -62 -62 -131 -76 -155 -104 -180
-155 -132 -13 12 -23 32 -23 44 0 19 163 254 176 254 3 0 18 -7 34 -15z m109
-51 c1 -2 -11 -33 -29 -71 -18 -37 -41 -87 -51 -111 -17 -40 -22 -43 -51 -40
-18 2 -32 8 -31 13 1 6 25 60 53 122 52 111 53 111 79 100 14 -6 28 -12 30
-13z m1016 -87 c30 -59 55 -114 55 -122 0 -10 -10 -15 -30 -15 -28 0 -33 7
-82 103 -29 56 -54 105 -56 109 -3 6 50 39 55 34 2 -1 28 -51 58 -109z m-948
59 c2 -1 -12 -44 -31 -95 -33 -94 -50 -116 -80 -105 -23 9 -20 34 15 111 17
37 35 78 40 91 8 20 12 21 31 11 13 -6 24 -12 25 -13z m856 -80 c25 -50 43
-96 40 -103 -7 -17 -47 -17 -61 0 -6 6 -24 48 -42 92 -30 75 -30 80 -14 92 10
7 22 12 26 11 4 -2 27 -43 51 -92z m-591 23 c158 -18 296 -5 456 42 13 4 96
-177 87 -191 -14 -22 -126 -85 -198 -112 -115 -42 -265 -50 -387 -19 -83 20
-202 73 -248 109 l-22 17 30 90 c17 50 32 95 34 101 3 8 26 5 74 -7 39 -10
117 -23 174 -30z"/>
<path d="M1450 3835 c0 -2 9 -9 19 -15 21 -11 54 -3 45 11 -5 9 -64 13 -64 4z"/>
<path d="M2380 3000 c0 -6 -11 -16 -25 -22 -29 -13 -33 -28 -7 -28 21 0 66 43
55 53 -10 10 -23 8 -23 -3z"/>
<path d="M690 2850 c0 -14 39 -32 52 -24 7 5 5 11 -7 21 -22 15 -45 17 -45 3z"/>
<path d="M1398 2643 c-27 -3 -38 -9 -38 -21 0 -12 3 -13 12 -4 22 22 30 12 26
-36 -3 -45 -1 -48 18 -44 20 4 21 7 11 43 -11 45 -5 58 19 38 14 -12 16 -11
13 5 -5 22 -10 24 -61 19z"/>
<path d="M1470 2645 c0 -3 7 -17 16 -30 9 -14 14 -36 12 -50 -4 -21 -1 -25 17
-25 18 0 22 4 18 21 -4 12 3 32 16 49 25 35 26 40 6 40 -8 0 -15 -9 -15 -19 0
-30 -19 -35 -26 -6 -4 16 -13 25 -25 25 -10 0 -19 -2 -19 -5z"/>
<path d="M1318 2632 c-13 -5 -15 -11 -8 -22 5 -8 10 -30 10 -47 0 -26 4 -33
19 -33 18 0 19 3 9 30 -5 17 -8 42 -5 55 4 26 2 28 -25 17z"/>
<path d="M1625 2603 c-1 -21 -3 -45 -5 -53 -3 -9 3 -16 15 -18 18 -2 20 2 19
35 -3 46 11 78 21 51 4 -9 4 -22 0 -28 -3 -5 0 -10 8 -10 8 0 18 8 21 17 9 22
-18 43 -53 43 -23 0 -26 -4 -26 -37z"/>
<path d="M1209 2614 c-15 -4 -15 -9 -3 -44 8 -22 11 -46 8 -54 -4 -11 0 -13
15 -9 16 4 20 11 15 32 l-5 26 19 -22 c11 -13 28 -23 38 -23 16 0 16 2 -2 21
-10 12 -19 33 -19 48 0 21 -5 26 -25 28 -14 0 -32 -1 -41 -3z m49 -27 c2 -10
-3 -17 -12 -17 -10 0 -16 9 -16 21 0 24 23 21 28 -4z"/>
<path d="M1727 2602 c-34 -37 -11 -92 38 -92 25 0 55 33 55 61 0 21 -32 49
-57 49 -11 0 -27 -8 -36 -18z m61 -23 c3 -29 -20 -65 -36 -55 -16 9 -15 59 0
74 17 17 33 9 36 -19z"/>
<path d="M1154 2578 c9 -12 16 -35 16 -51 0 -45 -33 -31 -45 18 -8 30 -14 40
-27 37 -20 -4 -24 -17 -8 -27 6 -3 10 -15 10 -25 0 -21 25 -50 44 -50 7 0 21
6 31 14 17 12 17 17 5 60 -7 27 -18 46 -27 46 -12 0 -12 -4 1 -22z"/>
<path d="M1843 2593 c8 -13 -12 -75 -27 -85 -9 -6 4 -13 61 -33 6 -2 17 3 23
11 11 12 8 13 -19 8 -37 -8 -40 4 -12 59 10 20 15 37 11 37 -5 0 -16 3 -26 7
-11 4 -15 3 -11 -4z"/>
<path d="M1030 2557 c-35 -18 -46 -41 -34 -74 12 -34 62 -44 88 -17 23 23 11
31 -14 9 -16 -14 -22 -15 -34 -5 -38 30 -24 91 15 69 15 -7 19 -6 19 5 0 22
-13 26 -40 13z"/>
<path d="M1944 2552 c2 -4 -4 -26 -14 -49 -16 -36 -16 -42 -3 -47 19 -8 23 -8
21 2 -3 15 15 62 28 73 12 10 12 14 2 20 -17 11 -41 11 -34 1z"/>
<path d="M913 2499 l-32 -20 25 -36 c13 -20 24 -40 24 -44 0 -5 16 -1 35 8 19
9 35 23 35 30 0 19 -13 16 -28 -7 -14 -22 -32 -18 -32 7 0 9 6 13 15 9 13 -5
14 -2 4 16 -9 17 -13 18 -20 7 -8 -12 -10 -12 -19 1 -10 16 13 36 30 25 6 -3
10 -2 10 4 0 19 -16 19 -47 0z"/>
<path d="M2002 2513 c-7 -3 -18 -16 -23 -30 -13 -36 12 -73 49 -72 l27 1 -25
7 c-31 9 -37 34 -16 66 21 32 33 31 48 0 8 -19 14 -22 20 -13 12 20 10 24 -17
36 -27 13 -42 14 -63 5z"/>
<path d="M2103 2474 c6 -6 -28 -63 -45 -75 -15 -10 52 -51 70 -43 14 6 11 9
-10 12 -16 2 -28 10 -28 17 0 18 17 28 25 15 7 -12 25 -4 25 11 0 5 -7 9 -16
9 -14 0 -14 2 -3 16 12 15 15 14 30 -5 11 -14 20 -18 24 -11 4 6 5 12 4 14
-50 36 -98 61 -76 40z"/>
<path d="M826 2447 c-31 -23 -16 -52 27 -55 24 -2 37 -8 34 -15 -2 -7 -14 -11
-26 -9 -14 1 -21 -3 -19 -10 7 -20 24 -20 49 1 20 16 22 23 13 38 -6 10 -25
19 -43 21 -34 4 -43 22 -11 22 11 0 20 5 20 10 0 14 -23 12 -44 -3z"/>
<path d="M1370 2390 c-19 -4 -30 -8 -23 -9 18 -2 29 -111 12 -122 -10 -6 -4
-9 19 -9 31 0 42 12 22 25 -5 3 -10 15 -10 27 0 17 5 20 30 16 25 -4 30 -1 30
15 0 13 -5 17 -15 13 -8 -3 -21 -9 -29 -12 -8 -3 -16 3 -19 16 -6 25 12 35 48
26 18 -5 25 -2 25 9 0 16 -29 18 -90 5z"/>
<path d="M1606 2375 c-7 -18 -2 -19 24 -3 10 7 22 10 25 7 8 -9 -14 -112 -26
-120 -6 -3 3 -8 20 -11 27 -4 30 -2 25 14 -3 10 -2 38 2 63 7 47 25 59 43 28
9 -16 10 -16 11 3 0 17 -8 23 -37 28 -59 9 -80 7 -87 -9z"/>
<path d="M1205 2350 c-27 -29 -22 -80 10 -107 14 -13 32 -23 40 -23 19 0 64
41 66 60 3 33 -2 51 -21 70 -26 26 -72 26 -95 0z m84 -26 c14 -32 14 -57 -1
-72 -31 -31 -78 6 -78 60 0 50 58 58 79 12z"/>
<path d="M1765 2358 c7 -17 -22 -100 -38 -110 -14 -8 -9 -13 19 -22 18 -6 22
-2 22 19 0 34 6 39 37 31 21 -5 25 -11 19 -29 -4 -12 -11 -24 -15 -25 -14 -6
0 -22 19 -22 11 0 18 9 18 25 1 14 11 43 21 64 17 34 18 41 6 46 -25 9 -31 6
-27 -12 7 -31 -9 -45 -39 -34 -20 8 -25 15 -20 28 4 10 11 21 17 25 13 8 8 13
-21 22 -17 6 -22 4 -18 -6z"/>
<path d="M1933 2298 c5 -15 -38 -105 -53 -110 -5 -1 10 -14 35 -27 24 -13 51
-21 60 -18 22 9 19 26 -4 20 -10 -3 -28 0 -40 7 -17 9 -19 14 -11 30 13 25 36
26 49 3 9 -16 12 -16 21 -3 13 19 13 33 0 25 -5 -3 -19 -1 -30 5 -16 9 -18 15
-10 30 9 17 14 18 35 8 14 -6 25 -18 25 -25 0 -8 5 -11 10 -8 20 12 9 25 -41
51 -32 16 -49 20 -46 12z"/>
<path d="M975 2259 c-16 -11 -36 -24 -44 -28 -9 -6 -11 -15 -7 -27 7 -18 9
-17 17 4 4 12 12 22 16 22 13 0 64 -90 58 -101 -9 -14 7 -10 29 6 11 8 15 15
9 15 -6 0 -24 21 -41 47 -33 50 -28 69 13 56 17 -5 18 -4 6 11 -16 20 -18 19
-56 -5z"/>
<path d="M880 2195 c-10 -12 -10 -15 1 -16 8 0 25 -14 38 -31 22 -27 22 -30 5
-25 -67 21 -104 24 -121 11 -16 -12 -16 -13 -2 -14 20 0 79 -64 79 -85 0 -18
12 -19 28 -3 14 14 16 32 4 24 -5 -3 -24 10 -42 29 -38 39 -38 40 45 20 32 -8
61 -12 63 -10 3 2 -14 25 -37 51 -22 25 -38 50 -35 55 9 15 -13 10 -26 -6z"/>
<path d="M2147 2082 c-50 -21 -64 -31 -56 -39 9 -9 15 -8 27 3 13 13 17 13 33
-2 23 -21 25 -44 4 -44 -11 0 -4 -14 22 -45 27 -32 39 -41 43 -31 8 23 82 74
99 68 11 -4 9 1 -5 21 -17 24 -43 39 -29 18 3 -5 -15 -26 -40 -47 -34 -27 -49
-34 -57 -26 -11 11 -6 28 37 135 9 22 3 21 -78 -11z m43 -23 c-9 -16 -14 -18
-26 -8 -12 10 -12 14 -2 20 26 17 40 11 28 -12z"/>
<path d="M730 2060 c-17 -22 -27 -40 -22 -40 5 0 30 -20 56 -44 l47 -43 30 39
c21 26 29 44 24 56 -7 15 -8 15 -14 -3 -14 -47 -27 -58 -50 -45 -26 13 -23 31
7 46 16 8 19 13 10 22 -16 16 -28 15 -28 -1 0 -7 -5 -18 -12 -25 -9 -9 -16 -8
-30 5 -17 15 -17 17 3 34 12 10 26 16 32 12 5 -3 8 0 5 7 -8 26 -26 20 -58
-20z"/>
<path d="M664 1983 c-9 -15 -6 -26 18 -61 17 -24 28 -45 26 -47 -1 -1 -24 0
-50 4 -29 5 -51 4 -58 -3 -12 -12 -14 -29 -2 -22 10 6 80 -38 99 -61 10 -13
13 -12 23 6 9 17 8 21 -5 21 -19 0 -79 30 -73 36 3 2 26 0 51 -5 26 -4 49 -6
51 -3 3 3 -8 22 -24 42 -17 21 -30 41 -30 45 0 9 52 -23 67 -42 10 -13 13 -12
23 6 7 13 7 21 1 21 -18 0 -100 54 -103 68 -2 9 -6 7 -14 -5z"/>
<path d="M957 1897 l-88 -82 17 -40 c28 -67 62 -202 70 -274 5 -60 1 -90 -31
-222 -42 -173 -43 -234 -5 -309 50 -99 101 -139 230 -186 100 -35 221 -97 298
-150 l62 -44 46 35 c68 52 156 99 283 150 175 70 210 97 257 199 36 80 35 147
-6 311 -40 161 -38 246 10 400 18 55 33 109 33 120 1 14 -26 46 -82 98 l-84
77 -461 0 -461 -1 -88 -82z m1083 -17 l74 -68 -21 -64 c-31 -88 -50 -172 -58
-248 -6 -55 -1 -89 29 -216 20 -83 36 -167 36 -186 0 -61 -31 -137 -76 -187
-43 -48 -61 -58 -251 -136 -62 -26 -148 -70 -191 -99 l-78 -53 -35 29 c-46 39
-190 112 -300 153 -112 42 -159 72 -197 127 -62 92 -67 170 -22 348 44 173 38
283 -24 462 l-24 68 76 70 77 70 455 0 455 -1 75 -69z"/>
<path d="M998 1865 l-67 -64 20 -56 c58 -167 64 -312 18 -489 -35 -137 -36
-209 -4 -214 11 -1 29 4 40 12 17 13 18 18 7 35 -12 20 -10 21 42 21 l54 0 -2
-32 c-1 -32 0 -33 43 -36 25 -2 55 -1 69 3 21 5 23 10 18 35 -5 30 -5 30 44
30 47 0 49 -1 47 -27 -2 -21 5 -30 26 -41 48 -23 129 10 99 40 -22 22 -12 28
53 28 65 0 75 -6 53 -28 -30 -30 52 -63 104 -41 26 10 29 16 24 41 -5 28 -5
28 44 28 49 0 50 -1 44 -26 -9 -34 7 -44 72 -44 56 0 88 20 66 42 -22 22 -12
28 43 28 30 0 55 -4 55 -10 0 -5 -4 -10 -10 -10 -5 0 -10 -7 -10 -15 0 -17 30
-35 59 -35 19 0 21 6 21 58 0 31 -14 109 -30 172 -44 169 -38 305 20 476 l20
58 -67 62 -68 63 -440 0 -440 1 -67 -65z m492 53 c0 -2 -7 -21 -14 -43 -11
-31 -20 -41 -40 -43 -14 -2 -26 1 -26 7 0 6 -4 11 -10 11 -5 0 -10 -9 -10 -19
0 -37 12 -51 41 -51 21 0 29 -5 30 -17 5 -83 4 -105 -3 -109 -4 -3 -37 24 -74
60 -36 36 -70 66 -77 66 -7 0 3 -13 21 -28 18 -15 32 -32 32 -37 0 -6 23 -28
50 -50 44 -35 64 -65 43 -65 -14 0 -129 118 -125 129 5 14 -15 14 -24 0 -3 -6
15 -31 42 -55 l49 -45 -55 7 c-30 3 -58 12 -62 18 -4 7 -29 23 -57 35 -27 13
-49 28 -48 34 2 11 -122 52 -130 43 -3 -3 9 -18 27 -33 49 -41 62 -49 91 -56
15 -4 29 -16 32 -27 5 -19 2 -20 -49 -14 -44 6 -54 4 -54 -8 0 -19 113 -88
144 -88 13 0 36 -10 51 -22 l27 -21 -23 -18 c-13 -10 -27 -15 -32 -12 -4 2
-28 -12 -52 -32 -25 -20 -49 -33 -55 -30 -11 7 -118 -90 -109 -99 9 -10 112
35 137 59 13 13 30 21 37 19 7 -3 43 14 79 39 47 31 74 43 91 39 l24 -4 -21
-29 c-12 -16 -27 -29 -34 -29 -14 0 -79 -78 -71 -86 2 -3 17 10 32 28 16 18
32 32 36 31 4 -2 24 18 45 42 20 25 43 45 51 45 8 0 -7 -25 -38 -60 -29 -33
-56 -60 -61 -60 -6 0 -21 -9 -35 -20 -20 -16 -29 -17 -40 -9 -7 7 -15 10 -17
8 -26 -32 -74 -115 -67 -117 12 -4 114 69 106 76 -9 9 26 41 40 36 7 -3 40 25
74 63 l61 68 0 -57 c0 -31 3 -63 6 -72 5 -13 -1 -16 -33 -16 -21 0 -44 -5 -51
-12 -14 -14 -16 -68 -2 -68 6 0 10 7 10 16 0 12 6 15 23 10 12 -3 29 -6 38 -6
17 0 30 -30 38 -85 3 -19 41 37 41 60 0 16 7 24 25 27 17 4 25 1 25 -9 0 -20
24 -11 28 11 5 24 -14 44 -49 51 -17 4 -29 13 -30 23 -1 32 -1 87 0 105 1 13
19 -1 62 -48 34 -36 64 -63 67 -60 7 7 42 -25 42 -39 0 -12 93 -76 109 -76 6
0 -8 27 -30 60 -22 33 -44 58 -48 56 -4 -3 -25 17 -46 45 -21 27 -40 47 -43
44 -6 -6 -52 34 -52 46 0 3 10 9 21 12 15 4 41 -7 83 -35 33 -23 67 -42 76
-43 31 -3 60 -17 60 -29 0 -10 41 -29 120 -54 8 -3 -9 20 -39 51 -30 31 -58
54 -63 51 -4 -3 -28 11 -54 30 -25 19 -51 33 -58 30 -7 -3 -20 4 -31 15 -22
26 -8 47 38 56 36 7 100 36 105 48 2 4 9 7 16 7 7 0 21 9 31 20 16 18 16 20 1
26 -9 3 -38 3 -64 0 -33 -5 -43 -4 -32 3 8 6 11 11 5 11 -5 0 1 9 14 19 14 10
30 17 36 15 6 -3 22 7 35 21 13 14 19 25 13 25 -6 0 -16 -7 -23 -15 -16 -19
-30 -19 -30 -1 0 15 41 29 62 21 8 -3 23 3 33 15 18 19 18 20 -1 19 -32 -1
-119 -36 -117 -47 1 -5 -22 -20 -53 -32 -30 -12 -58 -28 -62 -35 -4 -7 -29
-16 -57 -19 l-50 -8 50 52 c28 28 48 54 46 58 -2 4 8 14 22 22 29 17 90 96 85
111 -2 5 -29 -7 -61 -27 -31 -19 -55 -39 -52 -44 3 -4 -17 -25 -45 -45 -28
-20 -48 -40 -45 -45 3 -4 -15 -24 -40 -45 l-45 -36 0 60 c0 34 -1 64 -2 69 -2
4 16 10 40 13 23 3 47 10 53 16 13 13 8 54 -6 52 -5 0 -9 -5 -7 -10 1 -7 -75
-2 -85 5 -1 1 -5 21 -9 44 l-7 42 214 0 213 0 62 -61 62 -62 -19 -54 c-53
-155 -62 -310 -25 -448 51 -190 54 -248 11 -231 -14 5 -15 9 -5 21 10 12 10
18 0 30 -19 23 -119 17 -134 -8 -8 -13 -8 -20 4 -27 21 -13 -32 -31 -70 -23
-24 4 -29 9 -24 25 9 31 -14 48 -65 48 -59 0 -76 -11 -67 -43 7 -30 -17 -42
-64 -32 -32 7 -37 14 -18 33 23 23 -10 42 -77 42 -67 0 -100 -19 -77 -42 7 -7
12 -15 12 -19 0 -11 -48 -20 -74 -13 -19 4 -24 12 -22 37 1 32 1 32 -52 35
-61 4 -85 -10 -76 -43 4 -18 1 -23 -20 -27 -14 -3 -37 -3 -51 0 -20 3 -24 9
-19 24 10 32 -14 48 -71 48 -56 0 -80 -15 -65 -40 11 -17 4 -30 -16 -30 -23 0
-17 79 16 207 43 166 39 290 -14 455 l-23 73 61 63 60 62 208 0 c114 0 208 -1
208 -2z m20 -80 c0 -11 -5 -15 -15 -12 -15 6 -20 35 -8 47 9 9 23 -13 23 -35z
m253 -32 c-10 -14 -22 -26 -27 -26 -14 0 -56 -42 -56 -55 0 -10 -33 -43 -117
-120 -26 -22 -33 -25 -33 -12 0 9 27 38 59 64 33 26 60 53 60 60 1 6 19 26 41
43 23 18 38 35 35 38 -3 3 7 14 22 23 34 23 40 17 16 -15z m-265 2 c21 -21 13
-29 -25 -23 -61 10 -71 16 -48 25 30 13 59 12 73 -2z m111 -4 c8 -7 -4 -11
-46 -18 -34 -5 -43 -3 -43 8 0 8 8 16 18 19 16 4 63 -2 71 -9z m-95 -61 c4 -9
4 -18 1 -21 -7 -8 -35 19 -35 34 0 17 27 7 34 -13z m-386 -9 c12 -4 22 -13 22
-20 0 -19 -10 -17 -40 6 -26 20 -21 24 18 14z m376 -30 c9 -8 16 -22 16 -30 0
-12 -4 -12 -20 -4 -11 6 -20 20 -20 30 0 24 4 25 24 4z m-294 -24 c22 -11 40
-27 40 -35 0 -17 -2 -17 -24 -9 -9 3 -16 11 -16 18 0 6 -12 19 -27 28 -39 24
-21 22 27 -2z m596 -15 c-38 -37 -56 -44 -56 -20 0 11 54 44 88 54 1 1 -13
-15 -32 -34z m-296 -24 c5 -11 10 -30 10 -42 0 -18 -2 -20 -16 -9 -21 19 -36
49 -29 60 10 16 23 12 35 -9z m-165 -21 c35 -3 50 -9 50 -20 1 -24 15 -40 35
-40 17 0 30 -19 30 -43 0 -7 -4 -6 -10 3 -6 10 -10 11 -10 3 0 -7 -5 -13 -11
-13 -5 0 -7 5 -4 10 3 6 1 10 -4 10 -6 0 -11 -4 -11 -10 0 -5 -5 -10 -11 -10
-6 0 -9 7 -6 14 4 10 1 13 -9 9 -9 -3 -12 0 -9 9 7 17 -8 31 -50 46 l-30 11
33 -3 c17 -3 32 0 32 5 0 5 -15 9 -34 9 -42 0 -68 9 -60 21 3 5 11 6 17 2 7
-4 35 -10 62 -13z m385 0 c-8 -6 -32 -10 -52 -10 -21 0 -38 -4 -38 -8 0 -4 17
-7 38 -5 33 2 34 2 10 -6 -43 -14 -50 -21 -38 -36 8 -9 6 -14 -6 -19 -9 -4
-19 -4 -22 -1 -3 3 0 5 7 5 7 0 9 4 6 10 -9 15 -34 -12 -27 -30 5 -13 3 -13
-11 -1 -13 10 -17 10 -17 1 0 -9 -3 -10 -13 -1 -8 6 -17 8 -20 4 -4 -3 -7 3
-7 15 0 16 6 22 24 22 26 0 48 21 44 41 -2 10 13 15 54 19 31 3 60 8 64 13 4
4 10 5 13 1 3 -3 -1 -9 -9 -14z m-456 -19 c15 -13 15 -15 -1 -27 -10 -7 -31
-13 -48 -13 l-30 1 32 11 c17 7 35 16 40 20 4 5 -5 3 -20 -2 -16 -6 -43 -11
-60 -10 -28 1 -27 2 12 10 57 11 69 23 14 14 -43 -7 -103 1 -103 13 0 13 147
-3 164 -17z m602 7 c-11 -6 -42 -8 -75 -5 l-56 5 50 -13 c36 -9 42 -13 23 -14
-36 -1 -81 16 -73 29 3 5 39 10 78 10 57 -1 68 -3 53 -12z m-436 -13 c7 -9 11
-18 8 -20 -9 -10 -38 7 -38 21 0 18 14 18 30 -1z m95 -82 c8 -39 0 -41 -36
-10 -28 25 -41 60 -32 84 9 22 59 -34 68 -74z m245 49 c-10 -2 -28 2 -39 7
-25 14 -38 -4 -14 -18 17 -10 17 -10 1 -11 -10 0 -18 -4 -18 -10 0 -5 -7 -10
-15 -10 -8 0 -15 7 -15 15 0 9 6 12 17 8 11 -4 14 -3 9 5 -4 6 -1 20 5 30 11
18 14 18 50 3 29 -12 33 -17 19 -19z m-440 7 c12 -8 11 -9 -6 -4 -14 4 -24 0
-28 -10 -3 -8 -13 -15 -23 -15 -15 0 -14 4 7 20 29 23 30 23 50 9z m53 -72 c4
3 7 2 7 -4 0 -6 -10 -11 -22 -11 -13 0 -50 -18 -83 -40 -33 -22 -63 -38 -67
-36 -8 5 -78 -35 -78 -45 0 -4 -13 -12 -30 -18 -16 -6 -30 -8 -30 -5 0 8 41
36 50 35 3 -1 26 14 51 33 25 18 49 31 52 28 3 -3 21 6 40 20 19 14 39 26 45
26 7 0 17 9 24 20 11 18 14 18 24 5 6 -8 14 -12 17 -8z m114 -19 c24 -22 30
-52 14 -63 -12 -7 -51 43 -51 66 0 25 9 24 37 -3z m217 -22 c16 -14 34 -22 40
-20 6 2 27 -10 46 -27 l35 -30 -32 16 c-18 8 -36 15 -40 15 -12 -2 -103 54
-103 63 0 14 25 6 54 -17z m-114 -41 c19 -24 40 -44 47 -45 7 0 27 -18 44 -40
18 -22 37 -40 44 -40 6 0 19 -14 29 -32 l19 -31 -22 15 c-12 9 -38 34 -57 57
-20 22 -41 41 -47 41 -13 0 -117 100 -117 112 0 21 29 3 60 -37z m-87 -36 c3
-10 2 -20 -1 -23 -9 -10 -42 26 -42 46 0 15 3 16 19 6 11 -7 22 -20 24 -29z
m377 -24 l23 -24 -32 12 c-17 6 -31 17 -31 24 0 20 14 16 40 -12z m-380 -39
c0 -18 -1 -19 -20 -1 -11 10 -20 24 -20 32 0 11 4 11 20 1 11 -7 20 -21 20
-32z m-240 -35 c0 -8 -43 -41 -55 -41 -3 0 2 11 11 25 16 24 44 34 44 16z
m200 -5 c0 -19 -18 -23 -60 -16 -33 6 -32 9 10 23 29 10 50 7 50 -7z m115 -7
c5 -6 3 -9 -5 -9 -8 0 -24 -3 -35 -6 -13 -3 -24 2 -33 16 -12 20 -11 21 25 14
21 -3 42 -10 48 -15z m-75 -29 c1 -8 2 -24 1 -35 -2 -20 -2 -20 -16 -1 -8 11
-15 33 -15 50 0 26 2 28 14 16 8 -8 15 -22 16 -30z"/>
<path d="M1180 1875 c0 -13 82 -116 88 -111 3 3 14 -1 24 -11 10 -9 18 -11 18
-5 0 6 -5 14 -10 17 -7 4 -7 12 -1 23 8 13 -1 24 -47 54 -55 36 -72 44 -72 33z
m75 -51 c14 -9 25 -23 25 -30 0 -22 -15 -16 -38 16 -25 34 -22 37 13 14z"/>
<path d="M2340 1960 c0 -17 -93 -73 -104 -63 -11 12 -6 -12 7 -29 12 -15 14
-15 25 3 7 10 17 19 23 19 6 0 22 9 36 20 28 22 43 18 43 -10 0 -25 -15 -33
-40 -20 -17 9 -21 6 -35 -27 -9 -20 -13 -44 -9 -52 4 -11 11 -4 22 25 15 35
19 40 34 30 25 -15 53 14 44 46 -8 31 -45 78 -46 58z"/>
<path d="M556 1787 c-21 -47 -22 -53 -8 -64 20 -16 29 -8 13 11 -20 24 6 30
55 11 24 -9 48 -24 53 -32 6 -12 10 -10 18 14 10 28 9 30 -16 30 -14 0 -44 8
-66 18 l-40 17 23 18 c18 15 19 19 7 24 -11 4 -22 -9 -39 -47z"/>
<path d="M533 1692 c-13 -8 -33 -55 -33 -78 0 -8 4 -12 10 -9 8 5 45 -2 111
-21 10 -3 18 3 21 14 4 15 0 17 -22 14 -42 -6 -45 15 -5 28 19 6 40 20 45 31
13 24 9 24 -34 -2 -20 -12 -36 -16 -36 -11 0 12 -28 42 -38 42 -4 0 -12 -4
-19 -8z m40 -35 c8 -22 -7 -37 -31 -30 -21 5 -29 23 -15 36 11 12 41 8 46 -6z"/>
<path d="M2472 1687 c-12 -14 -80 -33 -109 -30 -14 1 -16 -7 -7 -32 4 -10 9
-12 13 -7 3 6 19 14 35 18 28 7 29 6 23 -23 -5 -27 -4 -30 14 -26 14 4 17 9
10 16 -6 6 -11 19 -11 30 0 13 6 18 23 15 18 -2 22 -9 21 -35 -1 -23 2 -30 12
-26 17 6 17 6 1 67 -11 41 -14 46 -25 33z"/>
<path d="M616 1561 c-3 -4 -35 -17 -71 -27 -36 -10 -65 -21 -65 -24 0 -4 105
-66 132 -78 5 -2 8 5 8 16 0 15 -5 19 -20 15 -17 -5 -20 0 -20 26 0 29 7 36
38 32 7 -1 12 9 12 24 0 26 -5 31 -14 16z"/>
<path d="M2430 1563 c-76 -29 -60 -133 20 -133 35 0 80 38 80 68 0 42 -60 81
-100 65z m74 -45 c19 -30 -4 -53 -54 -53 -57 0 -77 27 -41 56 29 24 79 22 95
-3z"/>
<path d="M485 1429 c-4 -6 -9 -27 -11 -47 l-3 -37 74 0 c69 0 75 2 75 21 0 17
-5 20 -28 16 -23 -3 -29 1 -39 27 -8 23 -17 31 -37 31 -13 0 -28 -5 -31 -11z
m54 -28 c12 -21 5 -31 -20 -31 -22 0 -33 16 -25 35 8 21 33 19 45 -4z"/>
<path d="M2390 1381 c0 -20 3 -22 12 -13 14 14 48 16 48 3 0 -6 -13 -18 -30
-27 -28 -17 -46 -42 -36 -52 3 -2 20 8 38 23 24 20 33 24 37 14 4 -14 21 -29
33 -29 18 0 38 35 38 68 l0 37 -70 0 c-68 0 -70 -1 -70 -24z m130 -15 c0 -18
-15 -36 -31 -36 -10 0 -19 2 -19 4 0 2 -3 11 -6 20 -5 13 1 16 25 16 17 0 31
-2 31 -4z"/>
<path d="M592 1308 c9 -7 18 -24 20 -38 2 -21 -2 -26 -26 -28 -27 -3 -28 -2
-24 27 4 24 1 31 -12 31 -25 0 -31 -11 -14 -27 20 -20 13 -37 -15 -41 -21 -3
-23 0 -19 32 3 27 0 36 -10 36 -11 0 -13 -9 -8 -37 3 -21 6 -46 6 -57 0 -15 3
-16 15 -6 8 7 41 13 73 14 46 1 58 4 56 16 -2 8 -6 32 -9 53 -5 29 -10 37 -27
37 -19 0 -20 -1 -6 -12z"/>
<path d="M2381 1244 c-25 -32 -26 -44 -6 -70 14 -18 14 -17 9 12 -6 32 14 64
41 64 26 0 62 -19 69 -35 8 -21 -10 -55 -30 -55 -8 0 -12 -4 -9 -10 3 -5 14
-10 24 -10 20 0 31 26 31 72 0 58 -91 80 -129 32z"/>
<path d="M535 1170 c-14 -15 -16 -29 -11 -66 7 -57 15 -69 29 -50 14 18 89 38
110 30 14 -5 14 -1 5 30 -6 20 -20 45 -30 56 -25 26 -79 27 -103 0z m102 -27
c14 -21 14 -23 -13 -34 -16 -6 -41 -13 -56 -16 -36 -7 -46 18 -23 53 21 32 70
30 92 -3z"/>
<path d="M2335 1107 c-15 -41 -16 -50 -4 -58 21 -13 33 -11 20 5 -7 8 -9 25
-5 40 5 21 10 25 28 20 35 -10 39 -21 18 -42 -17 -17 -18 -21 -5 -26 24 -10
33 -7 27 9 -10 25 3 44 25 38 26 -7 27 -27 2 -52 -16 -16 -17 -20 -5 -25 10
-4 19 5 28 27 28 68 28 72 -3 73 -16 1 -47 10 -69 21 l-39 19 -18 -49z"/>
<path d="M640 975 c0 -8 -4 -15 -10 -15 -5 0 -10 -4 -10 -9 0 -5 12 -8 26 -8
18 0 24 4 20 14 -3 8 -6 19 -6 24 0 5 -4 9 -10 9 -5 0 -10 -7 -10 -15z"/>
<path d="M2330 946 c0 -9 -4 -16 -10 -16 -5 0 -10 -4 -10 -10 0 -5 11 -10 25
-10 14 0 25 5 25 10 0 6 -5 10 -11 10 -5 0 -8 4 -4 9 3 5 1 12 -5 16 -5 3 -10
-1 -10 -9z"/>
<path d="M703 876 c-45 -43 -16 -80 37 -47 17 10 27 21 23 24 -3 4 -14 0 -24
-9 -10 -9 -25 -14 -35 -12 -16 3 -16 4 -1 20 9 9 22 18 29 21 9 3 10 8 3 15
-7 6 -17 3 -32 -12z"/>
<path d="M2240 844 c0 -15 36 -64 43 -58 3 3 3 12 0 20 -3 9 2 14 16 14 12 0
21 5 21 10 0 6 -8 10 -17 10 -10 0 -28 3 -40 6 -13 4 -23 2 -23 -2z"/>
<path d="M763 815 c-7 -8 -21 -18 -30 -24 -10 -5 -15 -13 -10 -17 4 -4 16 1
27 11 20 18 20 18 13 -15 l-6 -34 32 23 c18 13 30 26 27 29 -3 2 -13 -1 -22
-9 -16 -13 -17 -11 -11 13 8 31 -2 42 -20 23z"/>
<path d="M2192 798 c-25 -25 -6 -68 30 -68 9 0 22 9 28 20 7 14 7 20 0 20 -5
0 -10 -4 -10 -10 0 -14 -37 -13 -46 2 -4 6 0 16 9 23 10 7 17 15 17 19 0 10
-15 7 -28 -6z"/>
<path d="M810 735 c-13 -14 -21 -28 -17 -31 7 -7 57 36 57 49 0 14 -17 7 -40
-18z"/>
<path d="M2140 742 c0 -14 49 -56 57 -49 3 4 -4 18 -17 32 -24 25 -40 32 -40
17z"/>
<path d="M868 722 c10 -7 8 -14 -7 -34 -11 -14 -18 -28 -14 -31 3 -4 15 5 26
19 15 20 22 23 28 12 6 -9 9 -9 9 -1 0 6 -7 19 -16 27 -8 9 -21 16 -27 16 -8
0 -8 -3 1 -8z"/>
<path d="M2091 701 c-12 -8 -10 -15 11 -40 14 -16 28 -27 32 -24 3 3 1 12 -6
20 -10 12 -7 13 15 8 17 -5 27 -3 27 4 0 6 -9 11 -20 11 -11 0 -19 5 -17 12 3
15 -24 21 -42 9z"/>
<path d="M901 658 c-23 -28 -23 -30 -5 -43 11 -8 22 -15 27 -15 13 0 7 18 -9
24 -8 3 -12 11 -9 16 5 8 11 7 21 -1 10 -8 14 -8 14 0 0 6 -5 11 -11 11 -5 0
-7 5 -4 10 5 8 11 7 21 -1 8 -6 14 -7 14 -3 0 5 -8 14 -17 20 -15 9 -22 5 -42
-18z"/>
<path d="M2030 655 c-10 -13 -9 -19 6 -38 10 -12 20 -23 21 -25 3 -8 43 19 43
30 0 7 -5 6 -15 -2 -13 -11 -18 -10 -30 6 -12 17 -12 21 2 32 15 11 15 12 1
12 -8 0 -21 -7 -28 -15z"/>
<path d="M962 616 l-20 -34 26 -11 c21 -10 28 -9 44 7 21 21 17 42 -11 59 -17
11 -22 8 -39 -21z m45 -20 c-4 -9 -13 -16 -22 -16 -18 0 -19 5 -4 32 13 24 35
9 26 -16z"/>
<path d="M1980 615 c0 -16 39 -60 46 -52 6 6 -29 67 -38 67 -5 0 -8 -7 -8 -15z"/>
<path d="M1930 592 c0 -8 53 -42 66 -42 11 0 -10 29 -24 34 -9 3 -23 9 -29 12
-7 3 -13 1 -13 -4z"/>
<path d="M1889 578 c-5 -18 -2 -78 4 -78 4 0 7 7 7 16 0 13 6 15 28 9 l27 -7
-29 31 c-28 29 -35 35 -37 29z"/>
<path d="M1115 560 c-4 -7 -2 -17 4 -23 6 -6 11 -18 11 -26 -1 -13 -4 -12 -15
3 -13 18 -15 18 -15 3 0 -22 28 -33 43 -18 9 9 8 17 -2 33 -11 18 -11 20 4 14
11 -4 15 -2 13 6 -6 17 -34 22 -43 8z"/>
<path d="M1170 540 c0 -6 5 -8 12 -4 11 7 9 -10 -7 -48 -4 -10 -3 -18 3 -18 6
0 15 14 21 31 6 17 15 28 21 24 5 -3 10 -1 10 4 0 6 -6 11 -14 11 -8 0 -21 3
-30 6 -9 3 -16 1 -16 -6z"/>
<path d="M1734 524 c-8 -3 -8 -14 0 -39 11 -37 32 -50 23 -15 -3 13 0 20 9 20
8 0 14 9 14 20 0 19 -19 25 -46 14z"/>
<path d="M1254 504 c3 -8 2 -13 -3 -10 -4 3 -16 -3 -26 -14 -10 -11 -13 -20
-7 -20 6 0 14 5 18 12 5 8 11 5 20 -7 8 -10 16 -17 18 -14 7 8 -6 69 -16 69
-6 0 -7 -7 -4 -16z"/>
<path d="M1300 508 c0 -4 5 -8 11 -8 7 0 8 -11 4 -30 -4 -17 -2 -30 3 -30 5 0
12 14 16 31 3 17 10 28 16 24 5 -3 10 -2 10 3 0 5 -13 12 -30 14 -16 3 -30 1
-30 -4z"/>
<path d="M1642 498 c-18 -18 -14 -46 7 -58 38 -20 71 13 51 51 -12 21 -40 25
-58 7z m44 -37 c-11 -18 -36 -13 -36 7 0 10 3 22 7 26 10 10 37 -20 29 -33z"/>
<path d="M1372 466 c-2 -27 2 -35 20 -39 13 -4 27 -2 32 3 7 7 2 10 -12 10
-12 0 -22 5 -22 11 0 6 7 9 15 5 8 -3 15 -1 15 4 0 6 -7 10 -15 10 -8 0 -15 5
-15 11 0 6 9 8 20 4 11 -4 20 -2 20 4 0 6 -13 11 -28 11 -25 0 -28 -4 -30 -34z"/>
<path d="M1460 490 c-12 -8 -12 -11 3 -28 21 -23 22 -33 2 -26 -8 4 -15 1 -15
-5 0 -17 40 -13 47 4 3 9 -3 23 -13 31 -18 15 -18 15 -1 10 12 -4 17 -2 15 6
-6 16 -20 19 -38 8z"/>
</g>
</svg>
